<svg width="16" height="16" viewBox="0 0 16 16" fill="none" xmlns="http://www.w3.org/2000/svg">
<path fill-rule="evenodd" clip-rule="evenodd" d="M14.6484 6.70264C14.6484 6.08999 14.5747 5.49464 14.4372 4.92426C14.0443 4.10524 13.4994 3.37248 12.8395 2.76232C11.6292 2.03929 10.2035 1.64524 8.6897 1.70043C4.51305 1.85264 1.25073 5.36199 1.40294 9.53859C1.42521 10.1496 1.52024 10.7407 1.67792 11.3047C2.01862 11.9539 2.45613 12.5446 2.97165 13.0571C4.155 13.8241 5.5657 14.2701 7.08094 14.2701C11.2603 14.2701 14.6484 10.882 14.6484 6.70264ZM10.7387 5.35129C11.2163 5.35129 11.6035 5.73853 11.6035 6.21616C11.6035 6.69378 11.2163 7.08102 10.7387 7.08102C10.2611 7.08102 9.87381 6.69378 9.87381 6.21616C9.87381 5.73853 10.2611 5.35129 10.7387 5.35129ZM5.3872 5.35132C5.86483 5.35132 6.25207 5.73856 6.25207 6.21618C6.25207 6.6938 5.86483 7.08105 5.3872 7.08105C4.90958 7.08105 4.52234 6.6938 4.52234 6.21618C4.52234 5.73856 4.90958 5.35132 5.3872 5.35132ZM3.82035 10.1558L4.54673 9.68643C5.20748 10.7089 6.32024 11.4021 7.52359 11.5409C9.06776 11.7191 10.6099 10.991 11.4529 9.68643L12.1794 10.1558C11.2613 11.5765 9.65781 12.4322 7.98457 12.4322C7.79835 12.4322 7.61159 12.4217 7.42446 12.4C5.96716 12.232 4.61981 11.393 3.82035 10.1558Z" fill="#FFCE00"/>
<path fill-rule="evenodd" clip-rule="evenodd" d="M14.4372 4.92432C14.5748 5.49475 14.6484 6.09005 14.6484 6.70269C14.6484 10.882 11.2603 14.2702 7.08098 14.2702C5.56573 14.2702 4.15498 13.8242 2.97168 13.0572C4.26249 14.3406 6.04017 15.135 7.9999 15.135C11.9342 15.135 15.1349 11.9343 15.1349 7.99999C15.1349 6.89934 14.8842 5.85615 14.4372 4.92432Z" fill="#FFB100"/>
<path fill-rule="evenodd" clip-rule="evenodd" d="M8.68961 1.70026C10.2034 1.64507 11.6291 2.03912 12.8394 2.76215C11.5666 1.58518 9.86588 0.864746 7.99977 0.864746C4.0655 0.864746 0.864746 4.0655 0.864746 7.99977C0.864746 9.19161 1.15891 10.3159 1.67783 11.3045C1.52015 10.7405 1.42512 10.1494 1.40285 9.53842C1.25064 5.36183 4.51296 1.85248 8.68961 1.70026Z" fill="#FFE454"/>
<path fill-rule="evenodd" clip-rule="evenodd" d="M7.99989 0C3.58876 0 0 3.58876 0 7.99989C0 12.411 3.58876 15.9998 7.99989 15.9998C12.411 15.9998 15.9998 12.411 15.9998 7.99989C15.9998 3.58876 12.4111 0 7.99989 0ZM7.99977 15.1349C6.03999 15.1349 4.26231 14.3405 2.97156 13.0571C2.4561 12.5445 2.01853 11.9538 1.67783 11.3047C1.15891 10.3161 0.864746 9.19173 0.864746 7.9999C0.864746 4.06562 4.0655 0.864868 7.99977 0.864868C9.86588 0.864868 11.5666 1.5853 12.8394 2.76227C13.4993 3.37244 14.0442 4.10519 14.4371 4.92422C14.8842 5.85606 15.1348 6.89925 15.1348 7.9999C15.1348 11.9342 11.934 15.1349 7.99977 15.1349Z" fill="black"/>
<circle cx="5.38733" cy="6.21618" r="0.864865" fill="black"/>
<circle cx="10.7387" cy="6.21618" r="0.864865" fill="black"/>
<path fill-rule="evenodd" clip-rule="evenodd" d="M7.98459 12.4321C9.65778 12.4321 11.2613 11.5764 12.1794 10.1557L11.453 9.68628C10.6099 10.9909 9.06778 11.7189 7.52362 11.5408C6.32027 11.402 5.20745 10.7087 4.54675 9.68628L3.82037 10.1557C4.61983 11.3929 5.96718 12.2318 7.42448 12.4C7.61156 12.4215 7.79837 12.4321 7.98459 12.4321Z" fill="black"/>
</svg>
